<svg width="50" height="50" viewBox="0 0 50 50" fill="none" xmlns="http://www.w3.org/2000/svg">
<path d="M27.959 0.136719C26.6016 0.46875 25.3711 1.46484 24.7558 2.74414C24.5703 3.13477 24.4141 3.55469 24.4141 3.66211C24.4141 4.00391 24.2676 4.11133 23.6328 4.25781C21.2598 4.81445 19.3359 7.16797 19.3359 9.53125C19.3359 10.5762 18.8965 10.498 25 10.498C31.1035 10.498 30.664 10.5762 30.664 9.53125C30.664 7.1875 28.8086 4.88281 26.4355 4.26758C26.1133 4.17969 25.8496 4.10156 25.8301 4.08203C25.8105 4.0625 25.8887 3.82812 25.9863 3.54492C26.25 2.86133 26.9531 2.12891 27.6855 1.78711L28.2715 1.51367H32.0801H35.8887L36.4551 1.79688C37.1387 2.14844 37.7246 2.76367 38.0664 3.49609L38.3301 4.05273L38.3594 12.2949C38.3691 16.8359 38.3496 20.5762 38.3105 20.6152C38.2617 20.6543 38.0566 20.7129 37.8418 20.7422C37.4512 20.8008 37.4512 20.8008 37.1094 20.2539C36.2207 18.8184 34.414 17.7832 32.8027 17.7734C32.2851 17.7734 31.9336 18.0566 31.9336 18.4766C31.9336 18.916 32.2168 19.1406 32.8906 19.2383C33.7793 19.3652 34.3555 19.5801 34.9121 20C35.5078 20.4492 35.957 21.0352 36.1914 21.6504C36.5234 22.5684 36.9336 22.7539 37.7246 22.3437C38.291 22.0508 39.4531 21.9922 40.1269 22.2168C41.3183 22.6074 42.0703 23.5547 42.3242 24.9707L42.3828 25.293H25.5273H8.68163L8.74023 25.0684C8.89648 24.541 9.37499 23.8477 9.82421 23.5059C10.6836 22.8516 11.7383 22.6855 12.7637 23.0469C13.0762 23.1543 13.418 23.2422 13.5351 23.2422C13.8769 23.2422 14.1308 22.9395 14.3066 22.3145C15.0391 19.6387 18.3887 18.8379 20.2539 20.8984C20.6641 21.3477 21.0937 22.1875 21.0937 22.5391C21.0937 23.2422 21.6113 23.6914 22.1582 23.457C22.2949 23.3984 22.6953 23.2422 23.0371 23.0957C23.457 22.9199 23.916 22.8125 24.4141 22.7832C25.5176 22.7051 26.2207 22.9004 27.4902 23.6328C28.2324 24.0527 28.6328 23.7305 28.7402 22.6172C28.8086 21.8848 29.2383 21.0059 29.834 20.3613C30.2051 19.9512 30.2734 19.8145 30.2539 19.541C30.2148 19.1016 29.8242 18.7891 29.4238 18.8965C28.8769 19.0332 27.9687 20.1855 27.5879 21.2207C27.4707 21.5332 27.334 21.7871 27.2851 21.7773C27.2363 21.7773 26.9141 21.6797 26.5625 21.5723C25.3906 21.2109 23.9844 21.2305 22.5976 21.6309C22.4219 21.6895 22.3633 21.6309 22.2266 21.2793C21.8555 20.3613 20.9277 19.3359 20.0098 18.8477C17.5976 17.5684 14.5312 18.5059 13.2812 20.9082L12.9492 21.5527L12.6074 21.4746C11.7187 21.2695 10.5176 21.4453 9.58007 21.9238C8.55468 22.4414 7.54882 23.6914 7.31444 24.7656L7.19726 25.293H5.90819C4.35546 25.293 3.81835 25.4297 3.20312 25.9766C1.83593 27.1777 2.08984 29.3848 3.68163 30.1855C3.93554 30.3125 4.16991 30.4297 4.18945 30.4395C4.20898 30.4492 4.3457 31.5918 4.50195 32.9785C4.76562 35.4199 4.78515 35.5078 5.02929 35.7129C5.35155 35.9961 5.58593 35.9961 5.91796 35.7129C6.24023 35.4297 6.24023 35.3613 5.92773 32.5293C5.77148 31.1621 5.73241 30.5371 5.80077 30.5078C5.85937 30.4883 10.0391 30.4785 15.0879 30.4883L24.2676 30.5176L24.2969 31.748C24.3164 32.832 24.3457 33.0078 24.5117 33.1543C24.7851 33.3984 25.2539 33.3789 25.5176 33.1152C25.7324 32.9102 25.7324 32.8418 25.7617 29.834L25.791 26.7578H30.625H35.4492V32.6074V38.4473L35.2246 38.7793C34.7754 39.4531 34.7558 39.4531 30.5859 39.4531C26.5137 39.4531 26.3867 39.4336 25.9961 38.8965C25.8203 38.6523 25.8008 38.4473 25.7617 37.1191C25.7324 35.6836 25.7226 35.6152 25.498 35.4395C25.2246 35.2148 24.8242 35.2051 24.5312 35.4102C24.3262 35.5566 24.3164 35.6152 24.3164 37.1875C24.3164 38.6133 24.3457 38.877 24.5215 39.2578C24.7754 39.8242 25.2246 40.2832 25.8301 40.6055L26.3183 40.8691H30.5664C34.6875 40.8691 34.8242 40.8594 35.2637 40.6641C35.8301 40.4004 36.3965 39.834 36.6601 39.2676C36.8555 38.8379 36.8652 38.6621 36.8945 34.6387L36.9238 30.4687H40.5664C42.5683 30.4687 44.2285 30.4883 44.248 30.5176C44.3164 30.5762 43.2031 40.6543 43.0762 41.25C42.7832 42.5293 41.8457 43.7695 40.7715 44.2969L40.1855 44.5801H25H9.81444L9.27733 44.3164C8.54491 43.9551 8.09569 43.5645 7.66601 42.9102C7.1289 42.0996 6.87499 41.2598 6.69921 39.668C6.61132 38.8965 6.49413 38.1836 6.4453 38.0762C6.24023 37.6953 5.54687 37.7051 5.26366 38.0859C5.08788 38.3203 5.08788 38.3691 5.26366 39.8926C5.37109 40.752 5.52734 41.6992 5.61523 41.9922C5.90819 42.9395 6.45507 43.8574 7.14843 44.5605L7.81249 45.2246L7.59765 45.8789C7.28515 46.8164 7.28515 48.3105 7.58788 48.8867C8.72069 50.9961 11.5723 49.9023 13.3789 46.6602L13.6914 46.0937H25H36.3086L36.6601 46.7187C37.1582 47.5977 37.9785 48.6035 38.623 49.1016C39.414 49.7168 39.9707 49.9414 40.7422 49.9512C41.3183 49.9512 41.4258 49.9219 41.7676 49.6484C41.9726 49.4824 42.2461 49.1504 42.3828 48.916C42.5976 48.5352 42.6269 48.3789 42.6269 47.5098C42.6269 46.7676 42.5683 46.377 42.4023 45.8887L42.1875 45.2344L42.8515 44.5703C43.6035 43.7891 44.1406 42.8613 44.4238 41.7969C44.541 41.3477 44.8242 39.1406 45.166 36.0352C45.8203 29.9707 45.7519 30.4004 46.0254 30.332C46.4844 30.2246 47.1484 29.6094 47.4121 29.0527C47.9394 27.9785 47.7051 26.7676 46.7969 25.9766C46.25 25.4883 45.6152 25.293 44.6094 25.293C43.8965 25.293 43.8476 25.2832 43.8086 25.0684C43.789 24.9512 43.7207 24.6094 43.6719 24.2969C43.3691 22.666 41.9629 21.1719 40.332 20.752L39.8926 20.6445L39.8437 12.2461C39.7949 3.88672 39.7949 3.85742 39.5801 3.29102C38.9551 1.64062 37.5488 0.400391 35.9473 0.0976562C35.1758 -0.0488281 28.6035 -0.0195312 27.959 0.136719ZM26.5625 5.83984C27.334 6.14258 28.0176 6.69922 28.4863 7.40234C28.8769 7.98828 29.2285 8.84766 29.1308 9.00391C29.0723 9.10156 20.9277 9.10156 20.8594 9.00391C20.7715 8.85742 21.1719 7.90039 21.543 7.35352C22.0215 6.66016 22.793 6.07422 23.623 5.79102C24.4531 5.49805 25.7324 5.51758 26.5625 5.83984ZM24.2969 27.9004L24.3262 29.0039H14.4433C5.52734 29.0039 4.54101 28.9844 4.30663 28.8477C3.9453 28.6328 3.79882 28.3789 3.78905 27.9395C3.78905 27.4707 3.93554 27.1875 4.32616 26.9434C4.6289 26.7578 4.8828 26.7578 14.4531 26.7871L24.2676 26.8066L24.2969 27.9004ZM45.6738 26.9531C46.0644 27.1875 46.2109 27.4707 46.2109 27.9395C46.2012 28.3789 46.0547 28.6328 45.6933 28.8477C45.459 28.9844 44.9121 29.0039 41.1719 29.0039H36.914V27.8809V26.7578H41.1426C45.1465 26.7578 45.3808 26.7676 45.6738 26.9531ZM9.65819 45.9961C9.84374 46.0449 10.4297 46.1035 10.957 46.1133C11.4844 46.123 11.9141 46.1719 11.9141 46.2207C11.9141 46.377 11.2695 47.1875 10.7715 47.6758C10.2539 48.1738 9.63866 48.5352 9.30663 48.5352C8.79882 48.5352 8.6328 47.5879 8.9453 46.4648C9.12108 45.8594 9.14062 45.8496 9.65819 45.9961ZM41.0058 46.2598C41.0644 46.4648 41.1523 46.9434 41.1816 47.334C41.2695 48.4668 40.9375 48.7793 40.0879 48.3301C39.4629 48.0078 38.0859 46.5527 38.0859 46.2207C38.0859 46.1719 38.5156 46.123 39.043 46.1133C39.5605 46.1035 40.1269 46.0547 40.2832 46.0059C40.8008 45.8496 40.8789 45.8789 41.0058 46.2598Z" fill="black"/>
<path d="M21.4551 12.2851C21.3086 12.4414 21.2891 12.7539 21.2891 14.6289C21.2891 16.6699 21.2988 16.8066 21.4844 16.9922C21.7285 17.2363 22.207 17.2461 22.4512 17.0019C22.7344 16.7187 22.7734 16.3379 22.7344 14.3359C22.7051 12.7148 22.6855 12.5 22.5195 12.3144C22.2754 12.0508 21.6797 12.0312 21.4551 12.2851Z" fill="black"/>
<path d="M24.4824 12.2852C24.3359 12.4414 24.3164 12.8027 24.3164 15.3027C24.3164 17.9199 24.3262 18.1445 24.4922 18.291C24.7559 18.5254 25.3223 18.5059 25.5469 18.252C25.7227 18.0567 25.7324 17.8613 25.7324 15.2832C25.7324 12.7051 25.7227 12.5098 25.5469 12.3145C25.3027 12.0508 24.707 12.0313 24.4824 12.2852Z" fill="black"/>
<path d="M27.4805 12.3144C27.3145 12.5 27.2949 12.7148 27.2656 14.2383C27.2266 16.2012 27.2754 16.7285 27.5488 17.0019C27.793 17.2461 28.2715 17.2363 28.5156 16.9922C28.7012 16.8066 28.7109 16.6699 28.7109 14.6191C28.7109 12.6269 28.6914 12.4219 28.5352 12.2754C28.2715 12.041 27.7051 12.0605 27.4805 12.3144Z" fill="black"/>
</svg>
