<svg width="50" height="50" viewBox="0 0 50 50" fill="none" xmlns="http://www.w3.org/2000/svg">
<path d="M6.64062 3.4668C4.75586 3.99414 3.75977 5.92773 4.4043 7.83203L4.59961 8.42773L4.4043 8.63281C4.19922 8.84765 4.19922 8.92578 4.19922 15.4102V21.9629L3.69141 22.2949C3.07617 22.6855 2.43164 23.3691 2.1582 23.916C1.77734 24.6484 1.66016 25.3516 1.66016 26.8652V28.3008L1.05469 28.3398C0.556641 28.3789 0.419922 28.4277 0.224609 28.6523L0 28.916V35.0098V41.1035L0.224609 41.3574C0.400391 41.5723 0.556641 41.6211 1.04492 41.6699L1.65039 41.7285L1.67969 43.9551C1.71875 46.8555 1.51367 46.6211 3.97461 46.6602C5.98633 46.6992 6.15234 46.6797 6.44531 46.3672C6.63086 46.1621 6.64062 46.0254 6.64062 43.9258V41.6992H25H43.3594V43.9258C43.3594 46.0254 43.3691 46.1621 43.5547 46.3672C43.8477 46.6797 44.0137 46.6992 46.0254 46.6602C48.4863 46.6211 48.2812 46.8555 48.3203 43.9551L48.3496 41.7285L48.9551 41.6699C49.4434 41.6211 49.5996 41.5723 49.7754 41.3574L50 41.1035V35.0098V28.916L49.7754 28.6523C49.5801 28.4277 49.4434 28.3789 48.9453 28.3398L48.3398 28.3008V26.8652C48.3398 25.3516 48.2227 24.6484 47.8418 23.916C47.5684 23.3691 46.9238 22.6855 46.3184 22.2949L45.8008 21.9629V15.4102C45.8008 8.92578 45.8008 8.84765 45.5957 8.63281L45.4004 8.42773L45.5957 7.83203C46.25 5.88867 45.2246 3.95508 43.2715 3.45703C42.4805 3.26172 41.8262 3.33008 41.0547 3.70117C39.4336 4.48242 38.7598 6.39648 39.502 8.125C39.5703 8.29101 38.8379 8.30078 25 8.30078C11.1621 8.30078 10.4297 8.29101 10.498 8.125C10.9082 7.17773 10.9082 6.19141 10.4883 5.27344C9.85352 3.84766 8.1543 3.04688 6.64062 3.4668ZM8.07617 5.12695C8.56445 5.33203 8.7793 5.53711 8.99414 6.00586C9.22852 6.51367 9.22852 6.875 8.97461 7.39257C8.67188 8.00781 8.07617 8.33984 7.36328 8.28125C6.48438 8.20312 5.95703 7.67578 5.87891 6.80664C5.78125 5.55664 6.95312 4.6582 8.07617 5.12695ZM43.418 5.29297C43.9258 5.64453 44.1699 6.17187 44.1211 6.79687C44.043 7.67578 43.5156 8.20312 42.6367 8.28125C42.1875 8.32031 42.0312 8.28125 41.6602 8.0664C41.1914 7.79296 40.8203 7.1875 40.8203 6.70898C40.8203 6.38671 41.0547 5.79102 41.2891 5.52734C41.7871 4.9707 42.7832 4.86328 43.418 5.29297ZM44.1406 15.8203V21.6797H42.4902H40.8398L41.1719 21.0156C41.6699 20.0195 41.8262 18.5547 41.6016 16.9434C41.377 15.3516 40.3223 14.0918 38.7891 13.5644C38.291 13.3984 37.9199 13.3789 34.1992 13.3789C29.6582 13.3789 29.541 13.3887 28.5352 14.0625C27.6074 14.6875 26.9727 15.6543 26.7578 16.7969C26.6309 17.4805 26.6309 19.2969 26.7676 19.9414C26.8262 20.2246 27.002 20.7227 27.1582 21.0352C27.3145 21.3574 27.4414 21.6309 27.4414 21.6504C27.4414 21.6602 26.3477 21.6797 25 21.6797C23.6621 21.6797 22.5586 21.6602 22.5586 21.6504C22.5586 21.6309 22.6855 21.3574 22.8418 21.0352C22.998 20.7227 23.1738 20.2246 23.2324 19.9414C23.3691 19.2969 23.3691 17.4805 23.2422 16.7969C23.0273 15.6543 22.3926 14.6875 21.4648 14.0625C20.459 13.3887 20.3418 13.3789 15.8008 13.3789C12.0801 13.3789 11.709 13.3984 11.2109 13.5644C9.67773 14.0918 8.62305 15.3516 8.39844 16.9434C8.17383 18.5547 8.33008 20.0195 8.82812 21.0156L9.16016 21.6797H7.50977H5.85938V15.8203V9.96093H25H44.1406V15.8203ZM20.0684 15.1758C20.6348 15.4102 21.0449 15.791 21.3379 16.3281C21.6016 16.8066 21.6309 16.9434 21.6602 18.0762C21.7188 19.6875 21.5625 20.2637 20.9082 20.9082C20.1562 21.6699 20 21.6895 15.6055 21.6602L11.8652 21.6309L11.3867 21.3867C10.8398 21.1133 10.498 20.7422 10.2148 20.1172C9.93164 19.502 9.91211 17.2852 10.1855 16.582C10.3906 16.0547 11.1719 15.2832 11.6602 15.1465C11.8262 15.0977 13.7109 15.0488 15.8496 15.0488C19.0332 15.0391 19.7949 15.0684 20.0684 15.1758ZM38.3008 15.1367C38.8184 15.2832 39.5996 16.0254 39.8145 16.582C40.0879 17.2852 40.0684 19.502 39.7852 20.1172C39.502 20.7422 39.1602 21.1133 38.6133 21.3867L38.1348 21.6309L34.3945 21.6602C30 21.6895 29.8438 21.6699 29.0918 20.9082C28.4375 20.2637 28.2812 19.6875 28.3398 18.0762C28.3691 16.9434 28.3984 16.8066 28.6621 16.3281C28.8086 16.0547 29.082 15.7031 29.2676 15.5762C29.9512 15.0488 29.9316 15.0488 34.082 15.0391C36.416 15.0391 38.0859 15.0781 38.3008 15.1367ZM45.2734 23.6035C45.8496 23.9062 46.3477 24.5117 46.5234 25.1074C46.6309 25.4687 46.6797 26.0352 46.6797 26.9727V28.3203H25H3.32031V26.9727C3.32031 26.0352 3.36914 25.4687 3.47656 25.1074C3.70117 24.3359 4.36523 23.6816 5.17578 23.4277C5.3125 23.3887 14.2969 23.3594 25.1465 23.3691L44.873 23.3887L45.2734 23.6035ZM48.3398 35.0098V40.0391H25H1.66016V35.0098V29.9805H25H48.3398V35.0098ZM4.98047 43.3594V45.0195H4.15039H3.32031V43.3594V41.6992H4.15039H4.98047V43.3594ZM46.6797 43.3594V45.0195H45.8496H45.0195V43.3594V41.6992H45.8496H46.6797V43.3594Z" fill="black"/>
<path d="M3.92578 36.7285C3.70117 36.7969 3.55469 36.9238 3.44727 37.1582C3.29102 37.4805 3.29102 37.5195 3.44727 37.8418C3.67188 38.3203 4.07227 38.3984 6.11328 38.3594C7.74414 38.3301 7.80273 38.3203 8.04688 38.0957C8.39844 37.7637 8.39844 37.2363 8.04688 36.9043C7.80273 36.6797 7.75391 36.6699 6.02539 36.6504C5.04883 36.6406 4.10156 36.6699 3.92578 36.7285Z" fill="black"/>
<path d="M10.6934 36.6894C10.0586 36.8457 9.834 37.6465 10.3125 38.0957L10.5664 38.3301L28.0957 38.3594C40.2149 38.3691 45.7422 38.3496 46.0059 38.2812C46.3086 38.2031 46.4356 38.0957 46.5528 37.8418C46.709 37.5293 46.709 37.4707 46.5528 37.168C46.4356 36.9141 46.2988 36.8066 46.0254 36.7285C45.6543 36.6211 11.1133 36.5918 10.6934 36.6894Z" fill="black"/>
</svg>
