<svg width="51" height="45" viewBox="0 0 51 45" fill="none" xmlns="http://www.w3.org/2000/svg">
<path d="M45.1268 13.7812V10C45.1268 5.28 41.9855 0 37.7799 0H12.5903C8.38474 0 5.2434 5.28 5.2434 10V13.7812C4.10511 13.9061 3.02356 14.4305 2.13584 15.2882C1.24811 16.1459 0.594186 17.2982 0.256942 18.599C-0.0803021 19.8998 -0.0856794 21.2906 0.241492 22.595C0.568663 23.8995 1.21365 25.0589 2.0947 25.9262V33.75C2.09605 34.9647 2.39457 36.1526 2.95377 37.1685C3.51297 38.1843 4.30861 38.9841 5.2434 39.47V42.5C5.2434 43.163 5.46455 43.7989 5.85822 44.2678C6.25188 44.7366 6.7858 45 7.34252 45H9.44165C9.99837 45 10.5323 44.7366 10.926 44.2678C11.3196 43.7989 11.5408 43.163 11.5408 42.5V40H38.8294V42.5C38.8294 43.163 39.0506 43.7989 39.4443 44.2678C39.8379 44.7366 40.3718 45 40.9286 45H43.0277C43.5844 45 44.1183 44.7366 44.512 44.2678C44.9057 43.7989 45.1268 43.163 45.1268 42.5V39.47C46.0616 38.9841 46.8572 38.1843 47.4164 37.1685C47.9756 36.1526 48.2742 34.9647 48.2755 33.75V25.9262C49.1566 25.0589 49.8016 23.8995 50.1287 22.595C50.4559 21.2906 50.4505 19.8998 50.1133 18.599C49.776 17.2982 49.1221 16.1459 48.2344 15.2882C47.3467 14.4305 46.2651 13.9061 45.1268 13.7812ZM12.5903 2.5H37.7799C40.6872 2.5 43.0277 6.6025 43.0277 10V14.0162C41.8201 14.4252 40.7573 15.2914 39.9998 16.4837C39.2423 17.6761 38.8315 19.1298 38.8294 20.625V24.83C33.9527 24.1376 29.0468 23.777 24.1355 23.75C19.9219 23.7187 15.7121 24.0596 11.5408 24.77V20.625C11.5387 19.1298 11.1279 17.6761 10.3704 16.4837C9.61297 15.2914 8.55008 14.4252 7.34252 14.0162V10C7.34252 6.6025 9.68305 2.5 12.5903 2.5ZM9.44165 42.5H7.34252V40H9.44165V42.5ZM43.0277 42.5H40.9286V40H43.0277V42.5ZM46.6413 24.2625C46.4983 24.3767 46.3811 24.5311 46.3 24.7121C46.2189 24.893 46.1765 25.0949 46.1764 25.3V33.75C46.1764 34.7446 45.8447 35.6984 45.2542 36.4016C44.6637 37.1049 43.8628 37.5 43.0277 37.5H7.34252C6.50744 37.5 5.70656 37.1049 5.11606 36.4016C4.52557 35.6984 4.19383 34.7446 4.19383 33.75V25.3C4.19374 25.0949 4.15129 24.893 4.0702 24.7121C3.98911 24.5311 3.87189 24.3767 3.72888 24.2625C3.2009 23.8428 2.77325 23.2674 2.48762 22.5922C2.20199 21.9171 2.06812 21.1653 2.09908 20.4102C2.13003 19.6551 2.32475 18.9225 2.66424 18.2837C3.00374 17.6449 3.47642 17.1218 4.03621 16.7654C4.596 16.4089 5.22379 16.2313 5.85837 16.2499C6.49295 16.2685 7.11266 16.4825 7.65709 16.8713C8.20151 17.26 8.65207 17.8101 8.96482 18.468C9.27758 19.1258 9.44186 19.869 9.44165 20.625V26.25C9.4417 26.4349 9.47618 26.6174 9.54261 26.7845C9.60904 26.9516 9.70575 27.099 9.82579 27.2163C9.94539 27.334 10.0856 27.4184 10.2362 27.4632C10.3868 27.508 10.5438 27.512 10.6959 27.475C15.137 26.5987 19.6342 26.1887 24.1355 26.25C29.3503 26.2753 34.5585 26.6886 39.73 27.4875C39.8789 27.5129 40.0306 27.5 40.175 27.4494C40.3193 27.3989 40.4528 27.312 40.5665 27.1947C40.6802 27.0773 40.7713 26.9322 40.8338 26.7692C40.8963 26.6062 40.9286 26.4292 40.9286 26.25V20.625C40.9284 19.869 41.0926 19.1258 41.4054 18.468C41.7182 17.8101 42.1687 17.26 42.7131 16.8713C43.2576 16.4825 43.8773 16.2685 44.5118 16.2499C45.1464 16.2313 45.7742 16.4089 46.334 16.7654C46.8938 17.1218 47.3665 17.6449 47.706 18.2837C48.0455 18.9225 48.2402 19.6551 48.2711 20.4102C48.3021 21.1653 48.1682 21.9171 47.8826 22.5922C47.597 23.2674 47.1693 23.8428 46.6413 24.2625Z" fill="black"/>
</svg>
